<?xml version="1.0" standalone="no"?>
<!DOCTYPE svg PUBLIC "-//W3C//DTD SVG 20010904//EN"
 "http://www.w3.org/TR/2001/REC-SVG-20010904/DTD/svg10.dtd">
<svg version="1.0" xmlns="http://www.w3.org/2000/svg"
 width="1000.000000pt" height="1000.000000pt" viewBox="0 0 1000.000000 1000.000000"
 preserveAspectRatio="xMidYMid meet">

<g transform="translate(0.000000,1000.000000) scale(0.100000,-0.100000)"
fill="#000000" stroke="none">
<path d="M0 5000 l0 -5000 5000 0 5000 0 0 5000 0 5000 -5000 0 -5000 0 0
-5000z m3118 3340 c167 -40 306 -122 442 -259 130 -131 212 -276 257 -458 16
-63 17 -253 20 -2415 l3 -2348 -270 0 -270 0 0 855 0 855 -420 0 -420 0 0
-855 0 -855 -265 0 -265 0 2 2373 3 2372 23 75 c110 356 425 630 780 680 97
13 283 3 380 -20z m2011 20 c311 -39 583 -237 727 -526 103 -207 95 -11 92
-2251 -4 -2214 6 -1985 -94 -2188 -143 -290 -416 -486 -729 -524 -53 -7 -293
-11 -587 -11 l-498 0 0 2755 0 2755 503 0 c291 0 538 -4 586 -10z m2209 -18
c163 -43 296 -118 424 -240 171 -163 264 -354 288 -589 8 -74 10 -425 7 -1123
-3 -895 -5 -1023 -20 -1081 -39 -160 -101 -282 -207 -407 l-61 -73 54 -62 c99
-115 149 -201 190 -332 43 -137 47 -218 47 -917 l0 -658 -270 0 -269 0 -3 693
-3 693 -38 76 c-62 127 -180 216 -313 238 -32 6 -155 10 -271 10 l-213 0 0
-855 0 -855 -265 0 -265 0 0 2756 0 2755 553 -4 c528 -3 556 -4 635 -25z
m-1288 -5016 c0 -3 -4 -8 -10 -11 -5 -3 -10 -1 -10 4 0 6 5 11 10 11 6 0 10
-2 10 -4z m-26 -47 c-5 -8 -1 -8 13 0 42 22 36 -11 -16 -96 -40 -65 -40 -77 0
-69 19 3 38 1 46 -5 11 -9 12 -9 7 4 -3 10 3 19 18 27 21 10 21 10 5 -3 -11
-9 -14 -18 -8 -21 6 -4 7 -14 4 -23 -4 -10 -2 -14 4 -10 5 3 10 0 10 -7 0 -7
-6 -13 -13 -12 -7 1 -12 -3 -11 -9 1 -5 5 -9 10 -7 17 5 3 -21 -64 -119 -161
-235 -363 -490 -509 -643 -50 -51 -90 -98 -90 -104 0 -6 -15 -22 -32 -37 -48
-40 -639 -976 -627 -992 16 -18 -5 -48 -47 -68 -32 -15 -38 -15 -51 -2 -13 12
-13 21 -4 47 6 18 135 227 286 465 151 238 275 435 275 438 0 3 -35 -10 -77
-29 -197 -90 -298 -78 -281 34 l4 27 -76 -36 c-272 -131 -421 -126 -420 13 1
102 171 307 314 378 64 33 91 36 130 18 51 -23 43 -68 -25 -136 -79 -79 -197
-134 -238 -112 -17 8 -24 5 -44 -22 -56 -75 -71 -134 -42 -158 33 -27 150 2
331 81 85 37 97 46 116 83 71 139 205 276 271 276 64 0 89 -61 41 -99 -30 -24
-54 -27 -72 -9 -24 24 -146 -120 -136 -159 4 -15 -3 -26 -24 -42 -47 -33 -80
-135 -48 -147 20 -8 153 39 254 90 l87 44 270 437 c149 241 272 444 273 452 3
12 -6 14 -48 9 -31 -3 -49 -2 -45 4 3 6 14 10 23 10 9 0 24 5 32 11 12 9 11
10 -5 5 -19 -6 -19 -5 -3 7 10 8 15 17 11 20 -3 4 0 7 8 7 52 0 90 22 116 68
44 77 83 132 94 132 6 0 7 -5 3 -11z m959 -136 c4 -3 2 -12 -4 -20 -8 -9 -36
-13 -85 -13 -67 0 -74 2 -74 20 0 18 7 20 78 20 43 0 82 -3 85 -7z m-2952
-312 c-16 -12 -20 -21 -12 -25 6 -4 11 -3 11 3 0 14 33 6 43 -11 8 -11 -31
-83 -156 -292 -91 -152 -162 -274 -157 -271 12 8 220 286 314 422 43 61 85
114 93 118 13 4 14 3 4 -9 -9 -11 -9 -16 0 -22 8 -4 9 -3 5 4 -4 7 -2 12 3 12
6 0 11 -4 11 -10 0 -5 9 -10 21 -10 19 0 17 -5 -17 -52 -222 -310 -367 -481
-478 -567 -36 -28 -76 -75 -116 -134 -62 -93 -73 -127 -42 -127 50 0 311 158
395 238 21 21 103 145 182 277 180 299 225 367 248 371 9 1 15 -2 11 -7 -3 -5
5 -8 18 -6 13 1 22 -3 21 -9 -1 -6 -61 -109 -132 -229 -72 -120 -131 -223
-131 -229 1 -20 220 245 322 389 45 65 61 80 82 80 14 0 26 -3 26 -7 0 -4 8
-4 17 -1 11 5 4 -12 -22 -48 -192 -265 -333 -435 -472 -569 -95 -91 -108 -109
-315 -440 -431 -686 -456 -722 -474 -677 -8 21 4 42 285 511 138 230 250 421
247 423 -2 2 -26 -12 -54 -31 -121 -87 -279 -130 -338 -91 -23 15 -26 22 -22
60 4 27 24 76 56 131 37 64 48 90 39 96 -24 15 -37 7 -71 -46 -58 -91 -132
-145 -199 -146 -67 0 -117 62 -117 144 l0 34 -107 -54 c-136 -67 -221 -91
-275 -75 -27 9 -40 19 -44 37 -32 125 202 464 319 464 64 0 89 -61 41 -99 -30
-24 -54 -27 -72 -9 -24 24 -132 -107 -193 -235 -32 -68 -37 -105 -15 -113 22
-8 160 42 268 98 93 47 100 53 125 104 34 70 142 206 190 238 21 14 50 26 65
26 24 0 28 -4 28 -29 0 -32 -42 -71 -77 -71 -25 0 -137 -146 -128 -168 3 -8
-8 -29 -24 -48 -51 -57 -55 -143 -10 -177 24 -17 31 -18 63 -7 39 13 101 81
136 151 19 36 19 37 1 54 -27 24 -43 67 -39 106 7 78 110 28 124 -61 6 -38 37
-91 47 -80 2 3 98 161 212 352 181 302 225 364 255 367 3 0 -6 -8 -19 -18z
m2045 -202 c9 -15 -45 -66 -78 -74 -43 -11 -46 18 -6 54 34 31 71 40 84 20z
m675 -119 c10 -6 19 -16 19 -23 0 -7 -22 -48 -48 -92 -118 -196 -153 -258
-139 -246 9 7 20 10 26 7 5 -3 56 29 113 72 119 89 159 111 194 104 35 -6 47
-43 38 -119 -6 -61 3 -93 27 -93 4 0 26 38 47 83 40 86 98 161 133 172 21 7
49 -10 49 -30 0 -6 -32 -47 -72 -91 -54 -60 -68 -80 -55 -82 26 -5 21 -28 -11
-51 -16 -11 -33 -36 -39 -55 l-11 -36 31 3 c26 2 32 -2 32 -17 0 -10 -7 -22
-15 -26 -8 -4 -28 -13 -44 -21 -18 -8 -53 -48 -87 -99 -99 -147 -194 -217
-329 -246 -66 -13 -91 -12 -117 9 -41 31 106 161 340 301 77 46 102 66 117 96
25 48 25 47 -4 54 -32 8 -51 58 -50 129 1 31 -2 57 -7 57 -13 0 -132 -93 -222
-173 -145 -129 -198 -162 -229 -146 -23 12 -23 33 3 88 15 35 17 46 7 53 -25
15 -38 7 -72 -46 -58 -91 -132 -145 -199 -146 -64 0 -117 62 -117 136 0 21 -4
25 -17 19 -104 -40 -298 -81 -337 -71 -77 19 -40 152 98 355 31 45 53 81 50
81 -2 0 3 14 11 30 27 52 115 79 115 36 0 -8 -42 -78 -94 -154 -107 -157 -148
-234 -140 -256 13 -34 88 -29 245 16 l77 22 32 67 c38 81 145 218 197 253 21
14 50 26 65 26 24 0 28 -4 28 -29 0 -32 -42 -71 -77 -71 -19 0 -98 -96 -141
-173 -22 -38 -22 -38 -2 -32 36 11 24 -31 -16 -54 -33 -20 -35 -24 -32 -67 2
-37 9 -51 29 -67 24 -17 31 -18 63 -7 39 13 101 81 136 151 19 36 19 37 1 54
-27 24 -43 67 -39 106 2 29 7 34 31 37 37 4 83 -42 92 -94 8 -42 30 -84 44
-84 15 0 182 294 178 312 -3 11 7 29 29 48 39 34 38 34 65 20z"/>
<path d="M2749 7812 c-143 -48 -250 -171 -279 -322 -6 -33 -10 -480 -10 -1226
l0 -1174 420 0 420 0 0 1188 c0 1269 1 1232 -50 1331 -34 67 -120 147 -196
183 -86 40 -217 49 -305 20z"/>
<path d="M4580 5616 l0 -2216 239 0 c210 0 247 2 303 20 119 37 222 132 272
253 l21 52 3 1854 c1 1235 -1 1873 -8 1910 -23 127 -113 241 -236 302 l-68 34
-263 3 -263 3 0 -2215z m173 -1858 c16 -27 11 -112 -6 -101 -6 3 -7 1 -3 -5 8
-14 -3 -62 -15 -62 -5 0 -8 4 -6 9 1 5 -6 16 -15 23 -15 12 -16 14 0 28 14 13
15 12 8 -5 -5 -15 -4 -17 5 -8 6 6 8 17 3 25 -12 19 -14 38 -2 38 5 0 2 7 -7
16 -13 14 -14 19 -3 25 10 7 9 9 -5 9 -15 0 -16 2 -5 15 19 21 36 18 51 -7z"/>
<path d="M6680 6461 l0 -1371 208 0 c236 0 314 10 392 47 68 33 159 122 193
189 49 97 48 93 45 1175 l-3 1015 -38 76 c-45 91 -112 157 -207 202 l-65 31
-262 3 -263 3 0 -1370z"/>
<path d="M5997 3245 c-4 -8 -3 -16 1 -19 4 -3 9 4 9 15 2 23 -3 25 -10 4z"/>
<path d="M5960 3049 c-18 -6 -55 -59 -134 -192 -60 -100 -152 -249 -203 -330
-52 -82 -93 -151 -90 -153 5 -5 115 126 209 252 77 102 288 415 288 427 0 10
-40 7 -70 -4z"/>
<path d="M4730 2353 c-56 -33 -146 -99 -155 -113 -23 -37 120 38 184 97 53 48
39 56 -29 16z"/>
<path d="M6804 1863 c-89 -59 -234 -174 -234 -185 0 -15 26 -8 90 23 82 42
236 186 218 205 -2 2 -35 -17 -74 -43z"/>
</g>
</svg>
